<?xml version="1.0" encoding="utf-8"?>
<!-- Generator: Adobe Illustrator 24.0.1, SVG Export Plug-In . SVG Version: 6.00 Build 0)  -->
<svg version="1.1" id="Layer_1" xmlns="http://www.w3.org/2000/svg" xmlns:xlink="http://www.w3.org/1999/xlink" x="0px" y="0px"
	 viewBox="0 0 1024 1024" style="enable-background:new 0 0 1024 1024;" xml:space="preserve">
<style type="text/css">
	.st0{fill:#4B88D8;}
</style>
<path class="st0" d="M512,0C229.3,0,0,229.3,0,512c0,255.5,187.2,467.4,432,505.8V660H302V512h130V399.2
	C432,270.8,508.5,200,625.4,200c56,0,114.6,10,114.6,10v126h-64.6c-1,0-2,0-2.9,0c-54.4,1.1-75.7,31.8-79.7,66.6v0.1
	c-0.1,0.6-0.1,1.2-0.2,1.8l0,0c-0.1,0.5-0.1,1-0.1,1.5c0,0.1,0,0.2,0,0.3c0,0.5-0.1,0.9-0.1,1.4c0,0.2,0,0.3,0,0.5
	c0,0.4,0,0.8-0.1,1.1c0,0.2,0,0.5,0,0.7c0,0.6,0,1.2-0.1,1.7v0.1c0,0.5,0,1.1,0,1.6c0,0.1,0,0.2,0,0.3c0,0.6,0,1.3,0,1.9v96h142
	l-22.7,148H592v357.8c244.8-38.4,432-250.2,432-505.8C1024,229.3,794.7,0,512,0z"/>
</svg>
