<?xml version="1.0" encoding="utf-8"?>
<!-- Generator: Adobe Illustrator 24.0.1, SVG Export Plug-In . SVG Version: 6.00 Build 0)  -->
<svg version="1.1" id="Layer_1" xmlns="http://www.w3.org/2000/svg" xmlns:xlink="http://www.w3.org/1999/xlink" x="0px" y="0px"
	 viewBox="0 0 49.2 49.2" style="enable-background:new 0 0 49.2 49.2;" xml:space="preserve">
<style type="text/css">
	.st0{fill:#4B88D8;}
</style>
<title>Asset 1</title>
<g id="Layer_2_1_">
	<g id="Instagram">
		<path class="st0" d="M24.6,0C11,0,0,11,0,24.6s11,24.6,24.6,24.6s24.6-11,24.6-24.6c0,0,0,0,0,0C49.2,11,38.2,0,24.6,0z
			 M38.5,30.4c0,1.2-0.2,2.3-0.7,3.4c-0.7,1.9-2.2,3.4-4.1,4.1c-1.1,0.4-2.2,0.6-3.4,0.7c-1.5,0.1-2,0.1-5.8,0.1s-4.3,0-5.8-0.1
			c-1.2,0-2.3-0.2-3.4-0.7c-1.9-0.7-3.4-2.2-4.1-4.1c-0.4-1.1-0.6-2.2-0.6-3.4c-0.1-1.5-0.1-2-0.1-5.8s0-4.3,0.1-5.8
			c0-1.2,0.2-2.3,0.6-3.4c0.7-1.9,2.2-3.4,4.1-4.1c1.1-0.4,2.2-0.6,3.4-0.6c1.5-0.1,2-0.1,5.8-0.1s4.3,0,5.8,0.1
			c1.2,0,2.3,0.2,3.4,0.6c1.9,0.7,3.4,2.2,4.1,4.1c0.4,1.1,0.6,2.2,0.7,3.4c0.1,1.5,0.1,2,0.1,5.8S38.6,28.9,38.5,30.4z M35.5,16.4
			c-0.5-1.2-1.4-2.2-2.7-2.7c-0.8-0.3-1.7-0.5-2.6-0.5c-1.5-0.1-1.9-0.1-5.7-0.1s-4.2,0-5.6,0.1c-0.9,0-1.8,0.2-2.6,0.5
			c-1.2,0.5-2.2,1.4-2.7,2.7c-0.3,0.8-0.5,1.7-0.5,2.6c-0.1,1.5-0.1,1.9-0.1,5.6s0,4.2,0.1,5.7c0,0.9,0.2,1.8,0.5,2.6
			c0.5,1.2,1.4,2.2,2.7,2.7c0.8,0.3,1.7,0.4,2.6,0.4c1.5,0.1,1.9,0.1,5.6,0.1s4.2,0,5.7-0.1c0.9,0,1.8-0.2,2.6-0.5
			c1.2-0.5,2.2-1.4,2.7-2.7c0.3-0.8,0.5-1.7,0.5-2.6c0.1-1.5,0.1-1.9,0.1-5.7s0-4.2-0.1-5.6C36,18.1,35.9,17.2,35.5,16.4L35.5,16.4z
			 M24.6,31.8c-4,0-7.2-3.2-7.2-7.2s3.2-7.2,7.2-7.2s7.2,3.2,7.2,7.2S28.6,31.8,24.6,31.8L24.6,31.8z M32.1,18.8
			c-0.9,0-1.7-0.8-1.7-1.7s0.8-1.7,1.7-1.7s1.7,0.8,1.7,1.7C33.8,18.1,33,18.8,32.1,18.8C32.1,18.8,32.1,18.8,32.1,18.8L32.1,18.8z
			 M24.6,20C22,20,20,22.1,20,24.7s2.1,4.7,4.7,4.7s4.7-2.1,4.7-4.7c0,0,0,0,0,0C29.3,22.1,27.2,20,24.6,20C24.6,20,24.6,20,24.6,20
			z"/>
	</g>
</g>
</svg>
